<svg width="128" height="59" viewBox="0 0 128 59" fill="none" xmlns="http://www.w3.org/2000/svg">
<path d="M3.77216 41.7429V0.661133H12.6045C16.5215 0.661133 20.3085 0.925551 23.4279 3.56679C26.4823 6.1434 27.9445 9.90695 27.9445 13.8086C27.9445 17.3753 26.5473 21.3386 23.7588 23.6508C20.7073 26.295 16.5215 26.8209 12.6045 26.8209H6.95949V41.7488L3.77216 41.7429ZM12.7375 23.8418C15.9868 23.8418 18.9113 23.4451 21.5019 21.133C22.5514 20.1948 23.385 19.0425 23.9458 17.7546C24.5066 16.4667 24.7813 15.0736 24.7513 13.6705C24.7542 10.5768 23.4929 7.46255 20.9732 5.61456C18.4505 3.699 15.2631 3.63437 12.2087 3.63437H6.95949V23.8418H12.7375Z" fill="#807A73"/>
<path d="M80.4245 41.7428C83.9693 38.3289 85.3251 34.4184 85.5083 29.4562H67.5777V26.4829H88.6927C88.8138 32.1944 88.0576 37.2477 84.5571 41.7428H80.4245ZM44.7198 41.778C40.8978 37.302 38.784 31.6295 38.7498 25.7572C38.7587 11.4904 50.5125 0 64.8571 0C73.9523 0 81.3225 4.49217 86.5688 11.6226L83.9811 13.6792C79.5324 7.07465 72.756 2.98205 64.6562 2.98205C52.4385 2.97323 41.946 13.6058 41.946 25.5604C41.9572 28.5852 42.5796 31.577 43.7762 34.3579C44.9728 37.1388 46.7191 39.6522 48.9115 41.7487" fill="#9FD44E"/>
<path d="M103.093 41.7429V0.661133H111.925C115.845 0.661133 119.629 0.925551 122.751 3.56679C125.803 6.1434 127.265 9.90695 127.265 13.8027C127.265 17.3694 125.871 21.3327 123.082 23.6449C120.028 26.2891 115.845 26.815 111.925 26.815H106.283V41.7429H103.093ZM112.058 23.8418C115.307 23.8418 118.235 23.4451 120.825 21.133C121.875 20.1947 122.708 19.0423 123.269 17.7545C123.83 16.4666 124.105 15.0736 124.075 13.6705C124.075 10.568 122.813 7.46255 120.288 5.61456C117.765 3.699 114.578 3.63437 111.523 3.63437H106.283V23.8418H112.058Z" fill="#807A73"/>
<path d="M127.266 40.9907H3.66852V42.492H127.266V40.9907Z" fill="#9FD44E"/>
<path d="M2.5611 56.361C2.12095 57.3247 1.70149 58.2736 1.53607 58.6174C1.51248 58.6933 1.46296 58.7586 1.39608 58.8021C1.32919 58.8455 1.24915 58.8644 1.16977 58.8554C0.782396 58.8504 0.396476 58.8071 0.0177238 58.7261L0 58.6732C0.841883 56.8899 3.16371 51.7954 3.64225 50.629L3.51228 50.2471C3.96472 50.1512 4.42396 50.0903 4.88587 50.0649C5.03062 50.0649 5.12219 50.1384 5.23149 50.4116C5.89023 51.957 6.97138 54.6688 7.48242 55.8528C8.08798 57.2542 8.50745 58.1826 8.72604 58.635V58.6908C8.30336 58.8044 7.86704 58.8597 7.42925 58.8554C7.18997 58.8554 7.04523 58.7643 6.91526 58.4352C6.64054 57.7801 6.42194 57.26 6.02906 56.361H2.5611ZM5.65391 55.2887C4.99517 53.5582 4.53731 52.43 4.33644 51.9041C3.86085 53.0147 3.49455 53.9783 2.94511 55.2887H5.65391Z" fill="#807A73"/>
<path d="M17.3459 52.1019C17.3459 51.4115 17.3459 50.9738 17.3075 50.3391C18.149 50.1575 19.0075 50.0659 19.8686 50.0659C22.5272 50.0659 23.0175 51.3586 23.0175 52.3223C23.0211 52.6992 22.9132 53.0689 22.7073 53.3854C22.5015 53.7019 22.2067 53.9514 21.8596 54.1027C23.1061 54.4846 23.632 55.2485 23.632 56.1593C23.632 58.0161 21.9482 58.8887 19.6441 58.8887C18.87 58.8894 18.0978 58.8107 17.34 58.6536L17.3459 52.1019ZM18.8642 53.8647C19.496 53.7933 20.1336 53.7874 20.7666 53.8471C20.9995 53.72 21.1906 53.5288 21.3169 53.2964C21.4432 53.0639 21.4993 52.8002 21.4785 52.5368C21.4785 51.6554 20.8877 51.0237 19.7238 51.0237C19.4347 51.0196 19.146 51.0501 18.8642 51.1148V53.8647ZM18.8642 57.7957C19.2191 57.8677 19.5803 57.9041 19.9424 57.9044C20.8936 57.9044 21.9541 57.4109 21.9541 56.2827C21.9541 55.3367 21.2599 54.7726 19.7977 54.7726C19.4856 54.7695 19.1737 54.7881 18.8642 54.8284V57.7957Z" fill="#807A73"/>
<path d="M36.7944 49.9722C39.4087 49.9722 41.2579 51.7203 41.2579 54.3792C41.2579 56.9264 39.7218 58.983 36.6644 58.983C33.3708 58.983 32.1271 56.6914 32.1271 54.576C32.1271 51.8672 34.0295 49.9546 36.7737 49.9546L36.7944 49.9722ZM36.5729 51.0269C35.0191 51.0269 33.8109 52.3197 33.8109 54.485C33.8109 56.6502 35.1461 57.943 36.7649 57.943C38.4486 57.943 39.5652 56.7971 39.5652 54.5055C39.5652 52.5018 38.487 51.0269 36.5817 51.0269H36.5729Z" fill="#807A73"/>
<path d="M56.3705 55.9245C56.3713 55.531 56.3407 55.138 56.2789 54.7493C56.7187 54.6613 57.1656 54.6131 57.6141 54.6054C57.7972 54.6054 57.9095 54.7141 57.9095 54.9873V58.081C57.5469 58.351 57.1495 58.5713 56.7279 58.7362C56.0907 58.9138 55.4311 58.9989 54.7694 58.9888C52.2438 58.9888 49.8304 57.8137 49.8304 54.5319C49.8304 51.6733 52.0606 49.9634 54.8049 49.9634C56.5448 49.9634 57.5875 50.551 57.9154 50.8918C57.896 51.1428 57.7919 51.3798 57.62 51.5646C57.548 51.6273 57.4583 51.6664 57.3631 51.6764C57.2679 51.6864 57.1719 51.6668 57.0883 51.6204C56.4148 51.2388 55.6507 51.044 54.8758 51.0563C52.9911 51.0563 51.5082 52.3843 51.5082 54.4761C51.5082 56.8617 53.2806 57.9341 55.0944 57.9341C55.5359 57.9495 55.9749 57.862 56.3764 57.6785L56.3705 55.9245Z" fill="#807A73"/>
<path d="M68.9576 56.3591C68.5205 57.3227 68.098 58.2717 67.9326 58.6154C67.9091 58.6908 67.86 58.7557 67.7938 58.7991C67.7275 58.8425 67.6482 58.8617 67.5693 58.8534C67.1809 58.8486 66.794 58.8053 66.4143 58.7241L66.3965 58.6713C67.2384 56.8879 69.5632 51.7935 70.0388 50.6271L69.9088 50.2451C70.3613 50.1492 70.8205 50.0883 71.2824 50.063C71.4272 50.063 71.5187 50.1364 71.628 50.4097C72.2868 51.955 73.3679 54.6668 73.879 55.8508C74.4845 57.2522 74.904 58.1806 75.1226 58.6331V58.6889C74.6999 58.8024 74.2636 58.8578 73.8258 58.8534C73.5865 58.8534 73.4418 58.7623 73.3118 58.4333C73.0371 57.7781 72.8185 57.2581 72.4256 56.3591H68.9576ZM72.0504 55.2867C71.3917 53.5562 70.9338 52.4281 70.733 51.9022C70.2574 53.0127 69.8911 53.9764 69.3417 55.2867H72.0504Z" fill="#807A73"/>
<path d="M83.7604 51.955C83.7604 51.009 83.7427 50.7564 83.725 50.3744C84.6965 50.1715 85.6862 50.0671 86.6789 50.063C91.0331 50.063 91.8011 52.666 91.8011 54.3759C91.8011 57.6077 89.2578 58.8887 86.3658 58.8887C85.4922 58.8836 84.6217 58.7851 83.7693 58.5949L83.7604 51.955ZM85.2965 57.7252C85.7159 57.8274 86.1467 57.8758 86.5785 57.8692C88.2239 57.8692 90.1233 57.123 90.1233 54.4141C90.1233 52.3576 88.8619 51.1177 86.5194 51.1177C86.1094 51.1273 85.7002 51.1587 85.2935 51.2117L85.2965 57.7252Z" fill="#807A73"/>
<path d="M105.038 49.9722C107.655 49.9722 109.502 51.7203 109.502 54.3792C109.502 56.9264 107.966 58.983 104.911 58.983C101.617 58.983 100.374 56.6914 100.374 54.576C100.374 51.8672 102.276 49.9546 105.02 49.9546L105.038 49.9722ZM104.82 51.0269C103.263 51.0269 102.058 52.3197 102.058 54.485C102.058 56.6502 103.393 57.943 105.012 57.943C106.695 57.943 107.812 56.7971 107.812 54.5055C107.812 52.5018 106.731 51.0269 104.828 51.0269H104.82Z" fill="#807A73"/>
<path d="M120.956 49.9893C121.633 49.9893 122.619 50.2449 123.06 50.6826C123.021 50.9232 122.919 51.1494 122.764 51.3378C122.723 51.4029 122.66 51.4514 122.587 51.4745C122.513 51.4977 122.434 51.494 122.362 51.4641C121.901 51.2382 121.399 51.1083 120.885 51.0822C120.135 51.0822 119.568 51.4289 119.568 52.1751C119.568 52.8656 120.209 53.2857 121.509 53.9761C122.69 54.5931 123.503 55.1777 123.503 56.4499C123.503 58.2332 121.854 58.9971 120.374 58.9971C119.602 59.0253 118.839 58.8293 118.177 58.433C118.075 58.3939 117.988 58.3236 117.929 58.2322C117.87 58.1408 117.842 58.0331 117.849 57.9247C117.872 57.6501 117.981 57.3894 118.159 57.1785C118.816 57.6188 119.583 57.8709 120.374 57.9071C121.343 57.9071 121.872 57.487 121.872 56.7789C121.872 56.1913 121.527 55.8123 120.1 55.0308C118.673 54.2493 118.05 53.6294 118.05 52.3867C118.05 51.423 118.726 49.9834 120.959 49.9834L120.956 49.9893Z" fill="#807A73"/>
</svg>
