<svg width="33" height="33" viewBox="0 0 33 33" fill="none" xmlns="http://www.w3.org/2000/svg">
<path d="M3.84685 31.0056C3.8608 31.1136 3.91432 31.2125 3.99705 31.2833C4.07978 31.3541 4.18583 31.3917 4.29468 31.3887H10.0955C10.165 31.3918 10.2343 31.3781 10.2974 31.3487C10.3605 31.3193 10.4156 31.2752 10.458 31.2199C10.5004 31.1647 10.5288 31.1001 10.5409 31.0315C10.5529 30.9629 10.5483 30.8924 10.5273 30.8261L9.78518 28.3953L12.0972 26.935C12.3942 26.772 12.742 26.7276 13.0704 26.8109C13.0797 26.8133 13.0891 26.8157 13.0986 26.8173L17.9267 27.7068C19.258 27.945 20.6305 27.7513 21.8438 27.1539C21.863 27.1445 21.8814 27.1337 21.899 27.1216L30.2494 21.3882C30.3442 21.3231 30.4105 21.2243 30.4349 21.1119C30.4593 20.9996 30.4398 20.8821 30.3805 20.7836C30.0647 20.2575 29.558 19.8735 28.9661 19.7116C28.3742 19.5497 27.7426 19.6224 27.203 19.9145L27.1253 19.9565C26.5175 19.2703 25.5075 19.0139 24.7326 19.4068L24.7226 19.4121L24.4405 19.564C24.0258 19.2293 23.5195 19.0279 22.9882 18.9862C22.4569 18.9444 21.9254 19.0643 21.4634 19.33L19.6756 20.3028H17.2909C16.7832 20.302 16.2822 20.187 15.825 19.9664L15.4939 19.8059C14.5359 19.3398 13.4675 19.1478 12.4072 19.2513C11.3468 19.3548 10.3357 19.7498 9.48592 20.3925C9.476 20.3999 9.46659 20.4077 9.45718 20.4159L8.65757 21.1278C8.38827 21.3673 8.0735 21.5501 7.73202 21.6653L7.30431 20.2491C7.2768 20.1551 7.22022 20.0722 7.14269 20.0124C7.06517 19.9526 6.97068 19.9189 6.8728 19.9161H3.00561C2.94089 19.9186 2.8774 19.9346 2.81923 19.9631C2.76105 19.9916 2.70948 20.0319 2.66781 20.0815C2.62546 20.1293 2.59375 20.1856 2.57478 20.2466C2.55581 20.3076 2.55002 20.3719 2.55779 20.4353L3.84685 31.0056ZM25.1453 20.2097C25.5113 20.0271 25.9638 20.1499 26.2889 20.4081L23.2387 22.0536L23.1443 22.1034C23.0562 21.8799 22.94 21.6684 22.7986 21.4741L25.1453 20.2097ZM21.8998 20.1194C21.9034 20.1175 21.907 20.1155 21.9105 20.1135C22.1558 19.9716 22.4321 19.8918 22.7154 19.881C22.9986 19.8703 23.2802 19.9289 23.5355 20.0518L22.124 20.8124C21.8827 20.6435 21.6165 20.5133 21.3351 20.4266L21.8998 20.1194ZM9.25757 21.8017L10.043 21.1024C10.76 20.5643 11.6116 20.2343 12.504 20.1489C13.3964 20.0634 14.2951 20.2257 15.1013 20.618L15.4324 20.7787C16.0121 21.0583 16.6473 21.2041 17.2909 21.2051H20.5024C20.9333 21.2056 21.3518 21.3495 21.6918 21.6141C22.0318 21.8788 22.274 22.2491 22.3802 22.6666L20.1712 22.5664C19.3194 22.5279 18.4658 22.5673 17.6212 22.684C17.5041 22.7021 17.3989 22.7655 17.3282 22.8605C17.2574 22.9555 17.2269 23.0745 17.2431 23.1918C17.2594 23.3091 17.3211 23.4153 17.415 23.4876C17.5089 23.5598 17.6274 23.5921 17.7449 23.5777C18.5351 23.4686 19.3335 23.4317 20.1304 23.4675L22.8696 23.5915C22.8761 23.5915 22.8832 23.5919 22.89 23.5919C23.0096 23.5919 23.1244 23.5444 23.209 23.4598C23.2936 23.3752 23.3412 23.2604 23.3412 23.1407C23.3412 23.1005 23.3398 23.0606 23.3382 23.0207L23.663 22.8495L27.6313 20.7086C27.9024 20.5618 28.2125 20.5032 28.5184 20.5409C28.8243 20.5787 29.1109 20.7109 29.3381 20.9192L21.4152 26.359C20.3828 26.86 19.2182 27.0211 18.0886 26.8192L13.2753 25.9329C12.7239 25.7975 12.1416 25.8768 11.6465 26.1546C11.6394 26.1586 11.6324 26.1627 11.6256 26.167L9.51158 27.5034L7.99499 22.529C8.46118 22.3755 8.8909 22.128 9.25757 21.8017V21.8017ZM6.53867 20.8184L9.48625 30.4864H4.69416L3.51511 20.8184H6.53867Z" fill="white"/>
<path d="M6.89111 30.3394C7.13332 30.3394 7.37008 30.2675 7.57147 30.133C7.77286 29.9984 7.92982 29.8072 8.02251 29.5834C8.11519 29.3596 8.13944 29.1134 8.09219 28.8758C8.04494 28.6383 7.92831 28.4201 7.75704 28.2488C7.58578 28.0776 7.36757 27.9609 7.13002 27.9137C6.89247 27.8664 6.64624 27.8907 6.42248 27.9834C6.19871 28.076 6.00745 28.233 5.87289 28.4344C5.73833 28.6358 5.6665 28.8725 5.6665 29.1147C5.66688 29.4394 5.79602 29.7507 6.0256 29.9803C6.25518 30.2098 6.56644 30.339 6.89111 30.3394ZM6.89111 28.7925C6.95485 28.7925 7.01716 28.8114 7.07016 28.8468C7.12315 28.8822 7.16446 28.9325 7.18885 28.9914C7.21324 29.0503 7.21962 29.1151 7.20719 29.1776C7.19475 29.2401 7.16406 29.2976 7.11899 29.3426C7.07392 29.3877 7.0165 29.4184 6.95398 29.4308C6.89147 29.4433 6.82667 29.4369 6.76779 29.4125C6.7089 29.3881 6.65857 29.3468 6.62316 29.2938C6.58775 29.2408 6.56885 29.1785 6.56885 29.1147C6.56895 29.0293 6.60294 28.9474 6.66335 28.887C6.72376 28.8266 6.80567 28.7926 6.89111 28.7925Z" fill="white"/>
<path d="M9.36684 10.6248L10.5911 10.7428C10.7301 11.2469 10.9337 11.7309 11.1969 12.1828L10.4194 13.1216C10.3477 13.2081 10.3108 13.3184 10.3161 13.4307C10.3213 13.5429 10.3683 13.6492 10.4479 13.7287L11.916 15.1968C11.9954 15.2763 12.1016 15.3232 12.2139 15.3285C12.3261 15.3338 12.4363 15.297 12.5228 15.2253L13.4638 14.4457C13.9153 14.7082 14.3982 14.9124 14.9011 15.0533L15.0191 16.2818C15.0298 16.3939 15.0817 16.4981 15.1647 16.5742C15.2478 16.6502 15.3561 16.6928 15.4688 16.6935H17.5502C17.6628 16.6926 17.771 16.65 17.854 16.5739C17.9369 16.4978 17.9887 16.3936 17.9993 16.2816L18.1173 15.0553C18.6214 14.916 19.1054 14.7121 19.5572 14.4486L20.4961 15.2256C20.5827 15.2972 20.6928 15.3339 20.805 15.3286C20.9173 15.3233 21.0235 15.2763 21.1029 15.1968L22.5708 13.7287C22.6503 13.6493 22.6972 13.543 22.7025 13.4308C22.7078 13.3185 22.671 13.2083 22.5993 13.1218L21.8194 12.1804C22.082 11.7288 22.2862 11.2457 22.4271 10.7426L23.6334 10.6249C23.745 10.614 23.8485 10.562 23.9238 10.479C23.9991 10.396 24.0408 10.2879 24.0408 10.1758V8.09433C24.0408 7.98216 23.999 7.87402 23.9236 7.79098C23.8482 7.70795 23.7445 7.65598 23.6329 7.64522L22.4087 7.52727C22.2697 7.02316 22.066 6.53916 21.8028 6.08732L22.5803 5.14843C22.6516 5.06229 22.6884 4.95272 22.6835 4.84099C22.6787 4.72926 22.6325 4.62332 22.5539 4.54373L21.1047 3.07555C21.0254 2.99532 20.9189 2.9477 20.8063 2.94205C20.6937 2.93641 20.583 2.97316 20.4961 3.04507L19.5551 3.82495C19.1036 3.56246 18.6206 3.35832 18.1178 3.21741L17.9998 2.00634C17.9885 1.89592 17.9358 1.79386 17.8524 1.72063C17.769 1.6474 17.661 1.60842 17.55 1.6115H15.4688C15.358 1.60857 15.2501 1.64759 15.1669 1.72073C15.0836 1.79388 15.031 1.89577 15.0196 2.00602L14.9016 3.22347C14.3976 3.36131 13.9136 3.5638 13.4617 3.82591L12.5227 3.04674C12.4363 2.97497 12.3262 2.93803 12.214 2.94314C12.1017 2.94825 11.9954 2.99506 11.9159 3.07439L10.4479 4.54205C10.3685 4.62148 10.3216 4.72766 10.3163 4.83983C10.311 4.952 10.3478 5.06211 10.4194 5.14862L11.1992 6.08964C10.9368 6.54111 10.7326 7.02407 10.5917 7.52694L9.3671 7.64496C9.25537 7.65567 9.15163 7.70765 9.07617 7.79074C9.0007 7.87384 8.95892 7.98208 8.95898 8.09433V10.1757C8.95898 10.2879 9.00075 10.396 9.07616 10.4791C9.15157 10.5621 9.2552 10.6141 9.36684 10.6248ZM9.86133 8.50412L10.9957 8.39455C11.0909 8.38535 11.1807 8.34613 11.2522 8.28255C11.3237 8.21898 11.3731 8.13432 11.3933 8.04083C11.5319 7.41906 11.7817 6.82748 12.1309 6.29466C12.1828 6.21409 12.2078 6.11906 12.2021 6.02334C12.1964 5.92762 12.1604 5.8362 12.0993 5.76235L11.3763 4.88926L12.2636 4.002L13.1365 4.72497C13.2113 4.78689 13.304 4.82305 13.4009 4.82809C13.4978 4.83313 13.5938 4.80678 13.6746 4.75294C14.2042 4.4025 14.7945 4.15372 15.4153 4.01934C15.5078 4.00204 15.5922 3.95526 15.656 3.886C15.7197 3.81674 15.7594 3.72871 15.769 3.63507L15.8785 2.51358H17.1405L17.2501 3.63507C17.2595 3.7295 17.2989 3.81844 17.3626 3.88881C17.4262 3.95919 17.5108 4.00728 17.6038 4.02604C18.2256 4.16322 18.8174 4.41188 19.3505 4.75997C19.4313 4.81173 19.5264 4.83641 19.6221 4.83041C19.7179 4.82442 19.8092 4.78807 19.8829 4.72665L20.7538 4.00477L21.6262 4.88778L20.9007 5.76228C20.8389 5.83703 20.8027 5.92973 20.7977 6.02663C20.7927 6.12353 20.8191 6.21947 20.8729 6.30021C21.2233 6.82987 21.472 7.42013 21.6064 8.04083C21.6266 8.13432 21.6761 8.21898 21.7475 8.28255C21.819 8.34613 21.9088 8.38535 22.004 8.39455L23.1384 8.50412V9.76643L22.0219 9.87542C21.9268 9.88471 21.837 9.92396 21.7657 9.98752C21.6943 10.0511 21.6449 10.1357 21.6247 10.2291C21.4864 10.851 21.2366 11.4428 20.8875 11.9758C20.8355 12.0563 20.8105 12.1514 20.8162 12.2471C20.8218 12.3428 20.8579 12.4343 20.919 12.5081L21.6423 13.3806L20.7551 14.2679L19.882 13.5449C19.8073 13.483 19.7146 13.4469 19.6177 13.4418C19.5207 13.4368 19.4248 13.4631 19.344 13.517C18.8143 13.8675 18.2241 14.1163 17.6033 14.2508C17.5095 14.2719 17.4248 14.3221 17.3613 14.3943C17.2978 14.4664 17.2587 14.5568 17.2496 14.6525L17.1403 15.7912H15.8783L15.7687 14.6525C15.7596 14.5571 15.7204 14.467 15.6568 14.3952C15.5933 14.3234 15.5086 14.2736 15.415 14.2529C14.7931 14.1141 14.2015 13.864 13.6686 13.5146C13.5881 13.4626 13.4931 13.4375 13.3974 13.4431C13.3016 13.4487 13.2102 13.4847 13.1363 13.5458L12.2633 14.2685L11.3763 13.3806L12.0993 12.5076C12.1612 12.4329 12.1973 12.3401 12.2023 12.2432C12.2074 12.1462 12.181 12.0503 12.1271 11.9695C11.7767 11.4398 11.528 10.8496 11.3936 10.2289C11.3734 10.1354 11.3239 10.0507 11.2525 9.98716C11.181 9.92358 11.0912 9.88436 10.996 9.87517L9.86159 9.76559L9.86133 8.50412Z" fill="white"/>
<path d="M16.5093 13.6382C17.4 13.6382 18.2708 13.374 19.0114 12.8792C19.752 12.3843 20.3292 11.6809 20.6701 10.858C21.011 10.035 21.1002 9.12951 20.9264 8.25588C20.7526 7.38225 20.3237 6.57978 19.6938 5.94993C19.064 5.32008 18.2615 4.89116 17.3879 4.71739C16.5142 4.54362 15.6087 4.63282 14.7858 4.9737C13.9628 5.31458 13.2594 5.89184 12.7646 6.63247C12.2697 7.3731 12.0056 8.24384 12.0056 9.13459C12.007 10.3286 12.4819 11.4733 13.3262 12.3176C14.1705 13.1619 15.3152 13.6369 16.5093 13.6382ZM16.5093 5.53327C17.2215 5.53327 17.9178 5.74448 18.5101 6.1402C19.1023 6.53592 19.5639 7.09837 19.8365 7.75642C20.109 8.41448 20.1803 9.13858 20.0414 9.83717C19.9024 10.5358 19.5594 11.1775 19.0558 11.6811C18.5521 12.1848 17.9104 12.5277 17.2119 12.6667C16.5133 12.8057 15.7892 12.7343 15.1311 12.4618C14.4731 12.1892 13.9106 11.7276 13.5149 11.1354C13.1192 10.5431 12.908 9.84686 12.908 9.13459C12.9091 8.17983 13.2889 7.2645 13.964 6.5894C14.6392 5.9143 15.5545 5.53455 16.5093 5.53346V5.53327Z" fill="white"/>
<path d="M15.7043 10.5118C15.7886 10.594 15.9017 10.6401 16.0195 10.6401C16.1373 10.6401 16.2504 10.594 16.3347 10.5118L18.4942 8.40331C18.5371 8.36205 18.5715 8.3127 18.5952 8.25811C18.619 8.20352 18.6317 8.14477 18.6326 8.08525C18.6335 8.02572 18.6227 7.9666 18.6007 7.91129C18.5787 7.85598 18.5459 7.80557 18.5043 7.76297C18.4628 7.72037 18.4132 7.68642 18.3584 7.66308C18.3036 7.63974 18.2448 7.62747 18.1853 7.62697C18.1257 7.62647 18.0667 7.63776 18.0115 7.66018C17.9564 7.68261 17.9062 7.71572 17.8639 7.75762L16.0195 9.55825L15.1359 8.69561C15.0936 8.65371 15.0435 8.62059 14.9883 8.59817C14.9332 8.57575 14.8741 8.56446 14.8146 8.56496C14.7551 8.56545 14.6962 8.57773 14.6415 8.60107C14.5867 8.62441 14.5371 8.65836 14.4955 8.70096C14.4539 8.74356 14.4212 8.79397 14.3992 8.84928C14.3772 8.90459 14.3663 8.96371 14.3672 9.02323C14.3682 9.08276 14.3809 9.14151 14.4046 9.1961C14.4284 9.25069 14.4627 9.30004 14.5056 9.3413L15.7043 10.5118Z" fill="white"/>
</svg>
