<svg width="35" height="34" viewBox="0 0 35 34" fill="none" xmlns="http://www.w3.org/2000/svg">
<path d="M10.8125 8.5C10.5307 8.5 10.2605 8.61194 10.0612 8.8112C9.86194 9.01046 9.75 9.28071 9.75 9.5625C9.75 9.84429 9.86194 10.1145 10.0612 10.3138C10.2605 10.5131 10.5307 10.625 10.8125 10.625H23.5625C23.8443 10.625 24.1145 10.5131 24.3138 10.3138C24.5131 10.1145 24.625 9.84429 24.625 9.5625C24.625 9.28071 24.5131 9.01046 24.3138 8.8112C24.1145 8.61194 23.8443 8.5 23.5625 8.5H10.8125ZM9.75 13.8125C9.75 13.5307 9.86194 13.2605 10.0612 13.0612C10.2605 12.8619 10.5307 12.75 10.8125 12.75H23.5625C23.8443 12.75 24.1145 12.8619 24.3138 13.0612C24.5131 13.2605 24.625 13.5307 24.625 13.8125C24.625 14.0943 24.5131 14.3645 24.3138 14.5638C24.1145 14.7631 23.8443 14.875 23.5625 14.875H10.8125C10.5307 14.875 10.2605 14.7631 10.0612 14.5638C9.86194 14.3645 9.75 14.0943 9.75 13.8125ZM10.8125 17C10.5307 17 10.2605 17.1119 10.0612 17.3112C9.86194 17.5105 9.75 17.7807 9.75 18.0625C9.75 18.3443 9.86194 18.6145 10.0612 18.8138C10.2605 19.0131 10.5307 19.125 10.8125 19.125H23.5625C23.8443 19.125 24.1145 19.0131 24.3138 18.8138C24.5131 18.6145 24.625 18.3443 24.625 18.0625C24.625 17.7807 24.5131 17.5105 24.3138 17.3112C24.1145 17.1119 23.8443 17 23.5625 17H10.8125ZM10.8125 21.25C10.5307 21.25 10.2605 21.3619 10.0612 21.5612C9.86194 21.7605 9.75 22.0307 9.75 22.3125C9.75 22.5943 9.86194 22.8645 10.0612 23.0638C10.2605 23.2631 10.5307 23.375 10.8125 23.375H17.1875C17.4693 23.375 17.7395 23.2631 17.9388 23.0638C18.1381 22.8645 18.25 22.5943 18.25 22.3125C18.25 22.0307 18.1381 21.7605 17.9388 21.5612C17.7395 21.3619 17.4693 21.25 17.1875 21.25H10.8125Z" fill="#666666"/>
<path d="M4.4375 4.25C4.4375 3.12283 4.88527 2.04183 5.6823 1.2448C6.47933 0.447767 7.56033 0 8.6875 0L25.6875 0C26.8147 0 27.8957 0.447767 28.6927 1.2448C29.4897 2.04183 29.9375 3.12283 29.9375 4.25V29.75C29.9375 30.8772 29.4897 31.9582 28.6927 32.7552C27.8957 33.5522 26.8147 34 25.6875 34H8.6875C7.56033 34 6.47933 33.5522 5.6823 32.7552C4.88527 31.9582 4.4375 30.8772 4.4375 29.75V4.25ZM25.6875 2.125H8.6875C8.12391 2.125 7.58341 2.34888 7.1849 2.7474C6.78638 3.14591 6.5625 3.68641 6.5625 4.25V29.75C6.5625 30.3136 6.78638 30.8541 7.1849 31.2526C7.58341 31.6511 8.12391 31.875 8.6875 31.875H25.6875C26.2511 31.875 26.7916 31.6511 27.1901 31.2526C27.5886 30.8541 27.8125 30.3136 27.8125 29.75V4.25C27.8125 3.68641 27.5886 3.14591 27.1901 2.7474C26.7916 2.34888 26.2511 2.125 25.6875 2.125Z" fill="#666666"/>
</svg>
