<svg width="33" height="33" viewBox="0 0 33 33" fill="none" xmlns="http://www.w3.org/2000/svg">
<path d="M21.0834 23.8335C21.0834 24.0766 20.9868 24.3098 20.8149 24.4817C20.643 24.6536 20.4098 24.7502 20.1667 24.7502H7.33337C7.13171 24.7502 6.93921 24.9335 6.77421 25.0527L3.66671 27.5002V12.8335C3.66671 12.5904 3.76328 12.3572 3.93519 12.1853C4.1071 12.0134 4.34026 11.9168 4.58337 11.9168H8.12171V10.0835H4.58337C3.85403 10.0835 3.15456 10.3732 2.63883 10.889C2.12311 11.4047 1.83337 12.1042 1.83337 12.8335V29.3335C1.83474 29.5037 1.88349 29.6702 1.97415 29.8143C2.06482 29.9584 2.19382 30.0744 2.34671 30.1493C2.494 30.2163 2.65639 30.2431 2.81739 30.227C2.97839 30.2109 3.13227 30.1525 3.26337 30.0577L7.98421 26.5835H20.3042C20.6516 26.5938 20.9975 26.5326 21.3203 26.4038C21.6431 26.275 21.9361 26.0812 22.181 25.8346C22.4259 25.588 22.6175 25.2937 22.7441 24.97C22.8707 24.6463 22.9294 24.3 22.9167 23.9527V22.9168H21.0834V23.8335Z" fill="#666666"/>
<path d="M28.4167 3.6665H12.8334C12.104 3.6665 11.4046 3.95624 10.8888 4.47196C10.3731 4.98769 10.0834 5.68716 10.0834 6.4165V17.4165C10.0834 18.1459 10.3731 18.8453 10.8888 19.361C11.4046 19.8768 12.104 20.1665 12.8334 20.1665H25.2542L29.6359 23.5673C29.7661 23.6636 29.9196 23.7237 30.0806 23.7414C30.2416 23.7591 30.4045 23.7339 30.5525 23.6682C30.7085 23.5939 30.8403 23.477 30.9328 23.331C31.0252 23.1851 31.0746 23.016 31.075 22.8432V6.4165C31.0754 5.70277 30.7983 5.01683 30.3023 4.50367C29.8062 3.9905 29.13 3.6903 28.4167 3.6665ZM29.3334 21.0282L26.125 18.5257C25.965 18.4015 25.7684 18.3338 25.5659 18.3332H12.8334C12.5903 18.3332 12.3571 18.2366 12.1852 18.0647C12.0133 17.8928 11.9167 17.6596 11.9167 17.4165V6.4165C11.9167 6.17339 12.0133 5.94023 12.1852 5.76832C12.3571 5.59641 12.5903 5.49984 12.8334 5.49984H28.4167C28.6617 5.52208 28.8902 5.63314 29.059 5.8121C29.2279 5.99107 29.3254 6.22559 29.3334 6.4715V21.0282Z" fill="#666666"/>
</svg>
