<svg width="23" height="30" viewBox="0 0 23 30" fill="none" xmlns="http://www.w3.org/2000/svg">
<path d="M22.457 13.0742C22.457 12.9281 22.3375 12.8086 22.1914 12.8086H20.1992C20.0531 12.8086 19.9336 12.9281 19.9336 13.0742C19.9336 17.7326 16.1584 21.5078 11.5 21.5078C6.8416 21.5078 3.06641 17.7326 3.06641 13.0742C3.06641 12.9281 2.94688 12.8086 2.80078 12.8086H0.808594C0.6625 12.8086 0.542969 12.9281 0.542969 13.0742C0.542969 18.6756 4.74648 23.2975 10.1719 23.9516V27.3516H5.34746C4.89258 27.3516 4.52734 27.8264 4.52734 28.4141V29.6094C4.52734 29.7555 4.62031 29.875 4.7332 29.875H18.2668C18.3797 29.875 18.4727 29.7555 18.4727 29.6094V28.4141C18.4727 27.8264 18.1074 27.3516 17.6525 27.3516H12.6953V23.9682C18.1838 23.3705 22.457 18.7221 22.457 13.0742ZM11.5 18.7188C14.6178 18.7188 17.1445 16.2219 17.1445 13.1406V5.70312C17.1445 2.62187 14.6178 0.125 11.5 0.125C8.38223 0.125 5.85547 2.62187 5.85547 5.70312V13.1406C5.85547 16.2219 8.38223 18.7188 11.5 18.7188ZM8.37891 5.70312C8.37891 4.02305 9.77012 2.64844 11.5 2.64844C13.2299 2.64844 14.6211 4.02305 14.6211 5.70312V13.1406C14.6211 14.8207 13.2299 16.1953 11.5 16.1953C9.77012 16.1953 8.37891 14.8207 8.37891 13.1406V5.70312Z" fill="#666666"/>
</svg>
